<svg width="184" height="195" viewBox="0 0 184 195" fill="none" xmlns="http://www.w3.org/2000/svg">
<g filter="url(#filter0_d_2_48)">
<path d="M92 0L12.3257 52.5H171.674L92 0Z" fill="#3683F7"/>
</g>
<g filter="url(#filter1_d_2_48)">
<rect x="172" y="187" width="160" height="135" transform="rotate(-180 172 187)" fill="#3683F7"/>
</g>
<path d="M39.6641 145.412L41.1406 140.66H42.3008L39.752 147.979C39.3574 149.033 38.7305 149.561 37.8711 149.561L37.666 149.543L37.2617 149.467V148.588L37.5547 148.611C37.9219 148.611 38.207 148.537 38.4102 148.389C38.6172 148.24 38.7871 147.969 38.9199 147.574L39.1602 146.93L36.8984 140.66H38.082L39.6641 145.412ZM42.8926 143.771C42.8926 143.15 43.0137 142.592 43.2559 142.096C43.502 141.6 43.8418 141.217 44.2754 140.947C44.7129 140.678 45.2109 140.543 45.7695 140.543C46.6328 140.543 47.3301 140.842 47.8613 141.439C48.3965 142.037 48.6641 142.832 48.6641 143.824V143.9C48.6641 144.518 48.5449 145.072 48.3066 145.564C48.0723 146.053 47.7344 146.434 47.293 146.707C46.8555 146.98 46.3516 147.117 45.7812 147.117C44.9219 147.117 44.2246 146.818 43.6895 146.221C43.1582 145.623 42.8926 144.832 42.8926 143.848V143.771ZM43.9824 143.9C43.9824 144.604 44.1445 145.168 44.4688 145.594C44.7969 146.02 45.2344 146.232 45.7812 146.232C46.332 146.232 46.7695 146.018 47.0938 145.588C47.418 145.154 47.5801 144.549 47.5801 143.771C47.5801 143.076 47.4141 142.514 47.082 142.084C46.7539 141.65 46.3164 141.434 45.7695 141.434C45.2344 141.434 44.8027 141.646 44.4746 142.072C44.1465 142.498 43.9824 143.107 43.9824 143.9ZM53.9375 146.373C53.5156 146.869 52.8965 147.117 52.0801 147.117C51.4043 147.117 50.8887 146.922 50.5332 146.531C50.1816 146.137 50.0039 145.555 50 144.785V140.66H51.084V144.756C51.084 145.717 51.4746 146.197 52.2559 146.197C53.084 146.197 53.6348 145.889 53.9082 145.271V140.66H54.9922V147H53.9609L53.9375 146.373ZM59.709 141.633C59.5449 141.605 59.3672 141.592 59.1758 141.592C58.4648 141.592 57.9824 141.895 57.7285 142.5V147H56.6445V140.66H57.6992L57.7168 141.393C58.0723 140.826 58.5762 140.543 59.2285 140.543C59.4395 140.543 59.5996 140.57 59.709 140.625V141.633ZM63.4238 143.777C63.4238 142.805 63.6543 142.023 64.1152 141.434C64.5762 140.84 65.1797 140.543 65.9258 140.543C66.668 140.543 67.2559 140.797 67.6895 141.305V138H68.7734V147H67.7773L67.7246 146.32C67.291 146.852 66.6875 147.117 65.9141 147.117C65.1797 147.117 64.5801 146.816 64.1152 146.215C63.6543 145.613 63.4238 144.828 63.4238 143.859V143.777ZM64.5078 143.9C64.5078 144.619 64.6562 145.182 64.9531 145.588C65.25 145.994 65.6602 146.197 66.1836 146.197C66.8711 146.197 67.373 145.889 67.6895 145.271V142.359C67.3652 141.762 66.8672 141.463 66.1953 141.463C65.6641 141.463 65.25 141.668 64.9531 142.078C64.6562 142.488 64.5078 143.096 64.5078 143.9ZM70.1738 143.771C70.1738 143.15 70.2949 142.592 70.5371 142.096C70.7832 141.6 71.123 141.217 71.5566 140.947C71.9941 140.678 72.4922 140.543 73.0508 140.543C73.9141 140.543 74.6113 140.842 75.1426 141.439C75.6777 142.037 75.9453 142.832 75.9453 143.824V143.9C75.9453 144.518 75.8262 145.072 75.5879 145.564C75.3535 146.053 75.0156 146.434 74.5742 146.707C74.1367 146.98 73.6328 147.117 73.0625 147.117C72.2031 147.117 71.5059 146.818 70.9707 146.221C70.4395 145.623 70.1738 144.832 70.1738 143.848V143.771ZM71.2637 143.9C71.2637 144.604 71.4258 145.168 71.75 145.594C72.0781 146.02 72.5156 146.232 73.0625 146.232C73.6133 146.232 74.0508 146.018 74.375 145.588C74.6992 145.154 74.8613 144.549 74.8613 143.771C74.8613 143.076 74.6953 142.514 74.3633 142.084C74.0352 141.65 73.5977 141.434 73.0508 141.434C72.5156 141.434 72.084 141.646 71.7559 142.072C71.4277 142.498 71.2637 143.107 71.2637 143.9ZM82.918 145.506L84.1367 140.66H85.2207L83.375 147H82.4961L80.9551 142.195L79.4551 147H78.5762L76.7363 140.66H77.8145L79.0625 145.406L80.5391 140.66H81.4121L82.918 145.506ZM87.3535 140.66L87.3887 141.457C87.873 140.848 88.5059 140.543 89.2871 140.543C90.627 140.543 91.3027 141.299 91.3145 142.811V147H90.2305V142.805C90.2266 142.348 90.1211 142.01 89.9141 141.791C89.7109 141.572 89.3926 141.463 88.959 141.463C88.6074 141.463 88.2988 141.557 88.0332 141.744C87.7676 141.932 87.5605 142.178 87.4121 142.482V147H86.3281V140.66H87.3535ZM94.127 147H93.043V138H94.127V147ZM95.5801 143.771C95.5801 143.15 95.7012 142.592 95.9434 142.096C96.1895 141.6 96.5293 141.217 96.9629 140.947C97.4004 140.678 97.8984 140.543 98.457 140.543C99.3203 140.543 100.018 140.842 100.549 141.439C101.084 142.037 101.352 142.832 101.352 143.824V143.9C101.352 144.518 101.232 145.072 100.994 145.564C100.76 146.053 100.422 146.434 99.9805 146.707C99.543 146.98 99.0391 147.117 98.4688 147.117C97.6094 147.117 96.9121 146.818 96.377 146.221C95.8457 145.623 95.5801 144.832 95.5801 143.848V143.771ZM96.6699 143.9C96.6699 144.604 96.832 145.168 97.1562 145.594C97.4844 146.02 97.9219 146.232 98.4688 146.232C99.0195 146.232 99.457 146.018 99.7812 145.588C100.105 145.154 100.268 144.549 100.268 143.771C100.268 143.076 100.102 142.514 99.7695 142.084C99.4414 141.65 99.0039 141.434 98.457 141.434C97.9219 141.434 97.4902 141.646 97.1621 142.072C96.834 142.498 96.6699 143.107 96.6699 143.9ZM106.625 147C106.562 146.875 106.512 146.652 106.473 146.332C105.969 146.855 105.367 147.117 104.668 147.117C104.043 147.117 103.529 146.941 103.127 146.59C102.729 146.234 102.529 145.785 102.529 145.242C102.529 144.582 102.779 144.07 103.279 143.707C103.783 143.34 104.49 143.156 105.4 143.156H106.455V142.658C106.455 142.279 106.342 141.979 106.115 141.756C105.889 141.529 105.555 141.416 105.113 141.416C104.727 141.416 104.402 141.514 104.141 141.709C103.879 141.904 103.748 142.141 103.748 142.418H102.658C102.658 142.102 102.77 141.797 102.992 141.504C103.219 141.207 103.523 140.973 103.906 140.801C104.293 140.629 104.717 140.543 105.178 140.543C105.908 140.543 106.48 140.727 106.895 141.094C107.309 141.457 107.523 141.959 107.539 142.6V145.518C107.539 146.1 107.613 146.562 107.762 146.906V147H106.625ZM104.826 146.174C105.166 146.174 105.488 146.086 105.793 145.91C106.098 145.734 106.318 145.506 106.455 145.225V143.924H105.605C104.277 143.924 103.613 144.312 103.613 145.09C103.613 145.43 103.727 145.695 103.953 145.887C104.18 146.078 104.471 146.174 104.826 146.174ZM108.975 143.777C108.975 142.805 109.205 142.023 109.666 141.434C110.127 140.84 110.73 140.543 111.477 140.543C112.219 140.543 112.807 140.797 113.24 141.305V138H114.324V147H113.328L113.275 146.32C112.842 146.852 112.238 147.117 111.465 147.117C110.73 147.117 110.131 146.816 109.666 146.215C109.205 145.613 108.975 144.828 108.975 143.859V143.777ZM110.059 143.9C110.059 144.619 110.207 145.182 110.504 145.588C110.801 145.994 111.211 146.197 111.734 146.197C112.422 146.197 112.924 145.889 113.24 145.271V142.359C112.916 141.762 112.418 141.463 111.746 141.463C111.215 141.463 110.801 141.668 110.504 142.078C110.207 142.488 110.059 143.096 110.059 143.9ZM118.643 147.117C117.783 147.117 117.084 146.836 116.545 146.273C116.006 145.707 115.736 144.951 115.736 144.006V143.807C115.736 143.178 115.855 142.617 116.094 142.125C116.336 141.629 116.672 141.242 117.102 140.965C117.535 140.684 118.004 140.543 118.508 140.543C119.332 140.543 119.973 140.814 120.43 141.357C120.887 141.9 121.115 142.678 121.115 143.689V144.141H116.82C116.836 144.766 117.018 145.271 117.365 145.658C117.717 146.041 118.162 146.232 118.701 146.232C119.084 146.232 119.408 146.154 119.674 145.998C119.939 145.842 120.172 145.635 120.371 145.377L121.033 145.893C120.502 146.709 119.705 147.117 118.643 147.117ZM118.508 141.434C118.07 141.434 117.703 141.594 117.406 141.914C117.109 142.23 116.926 142.676 116.855 143.25H120.031V143.168C120 142.617 119.852 142.191 119.586 141.891C119.32 141.586 118.961 141.434 118.508 141.434ZM122.111 143.777C122.111 142.805 122.342 142.023 122.803 141.434C123.264 140.84 123.867 140.543 124.613 140.543C125.355 140.543 125.943 140.797 126.377 141.305V138H127.461V147H126.465L126.412 146.32C125.979 146.852 125.375 147.117 124.602 147.117C123.867 147.117 123.268 146.816 122.803 146.215C122.342 145.613 122.111 144.828 122.111 143.859V143.777ZM123.195 143.9C123.195 144.619 123.344 145.182 123.641 145.588C123.938 145.994 124.348 146.197 124.871 146.197C125.559 146.197 126.061 145.889 126.377 145.271V142.359C126.053 141.762 125.555 141.463 124.883 141.463C124.352 141.463 123.938 141.668 123.641 142.078C123.344 142.488 123.195 143.096 123.195 143.9ZM132.488 147V141.498H131.486V140.66H132.488V140.121C132.488 139.414 132.689 138.863 133.092 138.469C133.498 138.074 134.07 137.877 134.809 137.877C135.246 137.877 135.799 137.996 136.467 138.234L136.285 139.148C135.797 138.953 135.332 138.855 134.891 138.855C134.426 138.855 134.09 138.961 133.883 139.172C133.68 139.379 133.578 139.691 133.578 140.109V140.66H134.873V141.498H133.578V147H132.488ZM137.006 147H135.916V140.66H137.006V147ZM139.947 147H138.863V138H139.947V147ZM144.318 147.117C143.459 147.117 142.76 146.836 142.221 146.273C141.682 145.707 141.412 144.951 141.412 144.006V143.807C141.412 143.178 141.531 142.617 141.77 142.125C142.012 141.629 142.348 141.242 142.777 140.965C143.211 140.684 143.68 140.543 144.184 140.543C145.008 140.543 145.648 140.814 146.105 141.357C146.562 141.9 146.791 142.678 146.791 143.689V144.141H142.496C142.512 144.766 142.693 145.271 143.041 145.658C143.393 146.041 143.838 146.232 144.377 146.232C144.76 146.232 145.084 146.154 145.35 145.998C145.615 145.842 145.848 145.635 146.047 145.377L146.709 145.893C146.178 146.709 145.381 147.117 144.318 147.117ZM144.184 141.434C143.746 141.434 143.379 141.594 143.082 141.914C142.785 142.23 142.602 142.676 142.531 143.25H145.707V143.168C145.676 142.617 145.527 142.191 145.262 141.891C144.996 141.586 144.637 141.434 144.184 141.434Z" fill="white"/>
<path d="M45.5153 78.192C45.5153 74.592 47.0993 73.224 49.6193 73.224C52.1393 73.224 53.7233 74.592 53.7233 78.192V105.408C53.7233 109.008 52.1393 110.376 49.6193 110.376C47.0993 110.376 45.5153 109.008 45.5153 105.408V78.192ZM37.5953 104.904C37.5953 112.968 41.8433 117.576 49.6193 117.576C57.3953 117.576 61.6433 112.968 61.6433 104.904V78.696C61.6433 70.632 57.3953 66.024 49.6193 66.024C41.8433 66.024 37.5953 70.632 37.5953 78.696V104.904ZM78.4542 66.6H66.7902V117H74.7102V98.064H78.4542C86.3742 98.064 90.2622 93.672 90.2622 85.608V79.056C90.2622 70.992 86.3742 66.6 78.4542 66.6ZM78.4542 73.8C80.9742 73.8 82.3422 74.952 82.3422 78.552V86.112C82.3422 89.712 80.9742 90.864 78.4542 90.864H74.7102V73.8H78.4542ZM102.202 73.8H115.882V66.6H94.2823V117H115.882V109.8H102.202V95.04H113.074V87.84H102.202V73.8ZM137.71 117H145.846V66.6H138.79V96.768L130.654 66.6H120.718V117H127.846V80.496L137.71 117Z" fill="white"/>
<defs>
<filter id="filter0_d_2_48" x="8.32568" y="0" width="167.349" height="60.5" filterUnits="userSpaceOnUse" color-interpolation-filters="sRGB">
<feFlood flood-opacity="0" result="BackgroundImageFix"/>
<feColorMatrix in="SourceAlpha" type="matrix" values="0 0 0 0 0 0 0 0 0 0 0 0 0 0 0 0 0 0 127 0" result="hardAlpha"/>
<feOffset dy="4"/>
<feGaussianBlur stdDeviation="2"/>
<feColorMatrix type="matrix" values="0 0 0 0 0 0 0 0 0 0 0 0 0 0 0 0 0 0 0.25 0"/>
<feBlend mode="normal" in2="BackgroundImageFix" result="effect1_dropShadow_2_48"/>
<feBlend mode="normal" in="SourceGraphic" in2="effect1_dropShadow_2_48" result="shape"/>
</filter>
<filter id="filter1_d_2_48" x="8" y="52" width="168" height="143" filterUnits="userSpaceOnUse" color-interpolation-filters="sRGB">
<feFlood flood-opacity="0" result="BackgroundImageFix"/>
<feColorMatrix in="SourceAlpha" type="matrix" values="0 0 0 0 0 0 0 0 0 0 0 0 0 0 0 0 0 0 127 0" result="hardAlpha"/>
<feOffset dy="4"/>
<feGaussianBlur stdDeviation="2"/>
<feColorMatrix type="matrix" values="0 0 0 0 0 0 0 0 0 0 0 0 0 0 0 0 0 0 0.25 0"/>
<feBlend mode="normal" in2="BackgroundImageFix" result="effect1_dropShadow_2_48"/>
<feBlend mode="normal" in="SourceGraphic" in2="effect1_dropShadow_2_48" result="shape"/>
</filter>
</defs>
</svg>
